<?xml version="1.0" encoding="UTF-8"?>
<!-- Generated by Pixelmator Pro 3.5.5 -->
<svg width="1440" height="1440" viewBox="0 0 1440 1440" xmlns="http://www.w3.org/2000/svg">
    <text id="3" visibility="hidden" xml:space="preserve" x="521" y="1114" font-family="Herculanum" font-size="1000" fill="#34d399">3</text>
    <linearGradient id="linearGradient1" x1="539.352545" y1="1059.435746" x2="879.372802" y2="1059.435746" gradientUnits="userSpaceOnUse">
        <stop offset="0" stop-color="#22c55e" stop-opacity="1"/>
        <stop offset="1" stop-color="#14b8a6" stop-opacity="1"/>
    </linearGradient>
    <path id="path1" fill="url(#linearGradient1)" fill-rule="evenodd" stroke="none" d="M 642.272949 1113.58667 C 634.09436 1111.89209 628.184937 1108.593872 624.544495 1103.692139 C 620.904053 1098.790283 619.277344 1092.809204 619.664368 1085.748779 C 620.051331 1078.688232 622.287598 1070.964355 626.373108 1062.576904 C 630.458679 1054.189453 636.172913 1046.061401 643.51593 1038.192383 C 649.628723 1030.029419 658.110107 1020.254272 668.960205 1008.866699 C 679.810364 997.479126 690.625549 985.693237 701.406067 973.508728 C 712.186584 961.324219 721.962097 949.127258 730.732788 936.917542 C 739.503479 924.707825 744.830872 913.301025 746.715149 902.696716 C 729.201111 909.045105 714.450562 914.85083 702.463074 920.114136 C 690.475586 925.377441 680.177002 929.288574 671.567017 931.847595 C 662.957031 934.406616 655.511658 935.358276 649.230713 934.702393 C 642.949768 934.046509 636.758911 930.973755 630.657959 925.483826 C 627.624878 922.93811 624.833679 918.564514 622.284241 912.362793 C 619.734802 906.161133 618.164185 899.673279 617.572388 892.899048 C 616.980591 886.124817 618.134521 879.800476 621.034241 873.925781 C 623.93396 868.051086 629.281616 863.76947 637.077209 861.08075 C 640.992432 859.935669 643.92395 857.872742 645.871948 854.891846 C 647.819946 851.911011 649.74176 848.631348 651.637512 845.052734 C 653.533264 841.474182 655.844849 838.060059 658.572388 834.810303 C 661.299927 831.560608 665.600037 829.076965 671.4729 827.359314 C 681.121704 822.902649 692.013184 817.735168 704.147644 811.85675 C 716.282166 805.978333 728.867188 800.662903 741.903076 795.910339 C 754.938965 791.157715 768.014343 788.007813 781.129517 786.46051 C 794.244629 784.913208 806.806335 786.224915 818.814941 790.39563 C 830.390259 794.202698 840.944031 800.106506 850.476563 808.1073 C 860.009094 816.108032 867.324707 826.309937 872.423523 838.713318 C 877.5224 851.116699 879.815369 865.872986 879.30249 882.982605 C 878.789612 900.092285 874.67395 919.62439 866.955383 941.57959 C 862.835022 949.568481 858.35498 956.886108 853.515015 963.532593 C 848.675049 970.179077 843.220093 976.678467 837.149902 983.030884 C 831.079651 989.383301 824.221313 995.904907 816.574585 1002.595825 C 808.927856 1009.286743 800.454285 1016.852844 791.153625 1025.294312 C 812.482178 1025.84021 829.108826 1032.317627 841.034119 1044.726929 C 852.959412 1057.13623 860.654053 1072.825928 864.118286 1091.796509 C 867.582458 1110.76709 867.110168 1131.78772 862.701294 1154.859131 C 858.29248 1177.93042 850.834229 1200.565186 840.326294 1222.764038 C 832.155212 1239.53894 821.068176 1253.958496 807.065002 1266.022949 C 793.061768 1278.087524 777.390442 1288.290039 760.050476 1296.630859 C 742.710449 1304.97168 724.542908 1311.879028 705.547119 1317.353027 C 686.551331 1322.827026 668.157471 1327.144287 650.364929 1330.30481 C 622.645142 1334.734131 599.073059 1333.781982 579.64801 1327.448486 C 560.223022 1321.11499 548.2901 1310.915039 543.848999 1296.848022 C 539.427124 1287.597778 538.266663 1277.761475 540.367554 1267.339111 C 542.468445 1256.916626 546.475647 1247.632813 552.38916 1239.487183 C 558.302734 1231.341553 565.494751 1225.192383 573.965515 1221.039307 C 582.436218 1216.886353 591.047058 1216.635986 599.798157 1220.288208 C 610.263184 1220.578491 619.108032 1220.709229 626.332947 1220.680298 C 633.557922 1220.651489 640.721802 1219.925171 647.82489 1218.501587 C 654.927979 1217.078003 662.532959 1214.506348 670.640015 1210.786621 C 678.74707 1207.067017 689.096985 1201.444946 701.689941 1193.92041 C 709.311523 1189.239258 717.148682 1182.431396 725.20166 1173.496582 C 733.254639 1164.561768 739.397339 1155.593262 743.629883 1146.590698 C 747.862488 1137.588135 749.102539 1129.951294 747.350037 1123.679932 C 745.597595 1117.408691 738.926025 1114.578613 727.335205 1115.189697 C 719.729187 1115.452637 708.554382 1116.228149 693.810486 1117.516235 C 679.066528 1118.804321 661.887512 1117.494507 642.272949 1113.58667 Z"/>
    <linearGradient id="linearGradient2" x1="106.5" y1="720.730007" x2="1332" y2="720.730007" gradientUnits="userSpaceOnUse">
        <stop offset="0" stop-color="#22c55e" stop-opacity="1"/>
        <stop offset="1" stop-color="#14b8a6" stop-opacity="1"/>
    </linearGradient>
    <path id="CharmHome" fill="none" stroke="url(#linearGradient2)" stroke-width="100" stroke-linecap="round" stroke-linejoin="round" d="M 302.579987 549.159973 L 302.579987 1284.459961 M 302.579987 1284.459961 L 582 1284 L 742 1247 M 106.5 696.219971 L 719.25 157 L 1332 696.219971"/>
    <linearGradient id="linearGradient3" x1="986" y1="928" x2="1166" y2="928" gradientUnits="userSpaceOnUse">
        <stop offset="0" stop-color="#22c55e" stop-opacity="1"/>
        <stop offset="1" stop-color="#14b8a6" stop-opacity="1"/>
    </linearGradient>
    <path id="Path" fill="none" stroke="url(#linearGradient3)" stroke-width="100" stroke-linecap="round" stroke-linejoin="round" d="M 1166 572 L 1166 1284 L 986 1284"/>
    <linearGradient id="linearGradient4" x1="539.352545" y1="1059.435746" x2="879.372802" y2="1059.435746" gradientUnits="userSpaceOnUse">
        <stop offset="0" stop-color="#22c55e" stop-opacity="1"/>
        <stop offset="1" stop-color="#14b8a6" stop-opacity="1"/>
    </linearGradient>
    <filter id="filter1" x="0" y="0" width="1440" height="1440" filterUnits="userSpaceOnUse" primitiveUnits="userSpaceOnUse" color-interpolation-filters="sRGB">
        <feGaussianBlur stdDeviation="58.428643"/>
    </filter>
    <path id="3-copy" fill="url(#linearGradient4)" fill-rule="evenodd" stroke="none" filter="url(#filter1)" d="M 642.272949 1113.58667 C 634.09436 1111.89209 628.184937 1108.593872 624.544495 1103.692139 C 620.904053 1098.790283 619.277344 1092.809204 619.664368 1085.748779 C 620.051331 1078.688232 622.287598 1070.964355 626.373108 1062.576904 C 630.458679 1054.189453 636.172913 1046.061401 643.51593 1038.192383 C 649.628723 1030.029419 658.110107 1020.254272 668.960205 1008.866699 C 679.810364 997.479126 690.625549 985.693237 701.406067 973.508728 C 712.186584 961.324219 721.962097 949.127258 730.732788 936.917542 C 739.503479 924.707825 744.830872 913.301025 746.715149 902.696716 C 729.201111 909.045105 714.450562 914.85083 702.463074 920.114136 C 690.475586 925.377441 680.177002 929.288574 671.567017 931.847595 C 662.957031 934.406616 655.511658 935.358276 649.230713 934.702393 C 642.949768 934.046509 636.758911 930.973755 630.657959 925.483826 C 627.624878 922.93811 624.833679 918.564514 622.284241 912.362793 C 619.734802 906.161133 618.164185 899.673279 617.572388 892.899048 C 616.980591 886.124817 618.134521 879.800476 621.034241 873.925781 C 623.93396 868.051086 629.281616 863.76947 637.077209 861.08075 C 640.992432 859.935669 643.92395 857.872742 645.871948 854.891846 C 647.819946 851.911011 649.74176 848.631348 651.637512 845.052734 C 653.533264 841.474182 655.844849 838.060059 658.572388 834.810303 C 661.299927 831.560608 665.600037 829.076965 671.4729 827.359314 C 681.121704 822.902649 692.013184 817.735168 704.147644 811.85675 C 716.282166 805.978333 728.867188 800.662903 741.903076 795.910339 C 754.938965 791.157715 768.014343 788.007813 781.129517 786.46051 C 794.244629 784.913208 806.806335 786.224915 818.814941 790.39563 C 830.390259 794.202698 840.944031 800.106506 850.476563 808.1073 C 860.009094 816.108032 867.324707 826.309937 872.423523 838.713318 C 877.5224 851.116699 879.815369 865.872986 879.30249 882.982605 C 878.789612 900.092285 874.67395 919.62439 866.955383 941.57959 C 862.835022 949.568481 858.35498 956.886108 853.515015 963.532593 C 848.675049 970.179077 843.220093 976.678467 837.149902 983.030884 C 831.079651 989.383301 824.221313 995.904907 816.574585 1002.595825 C 808.927856 1009.286743 800.454285 1016.852844 791.153625 1025.294312 C 812.482178 1025.84021 829.108826 1032.317627 841.034119 1044.726929 C 852.959412 1057.13623 860.654053 1072.825928 864.118286 1091.796509 C 867.582458 1110.76709 867.110168 1131.78772 862.701294 1154.859131 C 858.29248 1177.93042 850.834229 1200.565186 840.326294 1222.764038 C 832.155212 1239.53894 821.068176 1253.958496 807.065002 1266.022949 C 793.061768 1278.087524 777.390442 1288.290039 760.050476 1296.630859 C 742.710449 1304.97168 724.542908 1311.879028 705.547119 1317.353027 C 686.551331 1322.827026 668.157471 1327.144287 650.364929 1330.30481 C 622.645142 1334.734131 599.073059 1333.781982 579.64801 1327.448486 C 560.223022 1321.11499 548.2901 1310.915039 543.848999 1296.848022 C 539.427124 1287.597778 538.266663 1277.761475 540.367554 1267.339111 C 542.468445 1256.916626 546.475647 1247.632813 552.38916 1239.487183 C 558.302734 1231.341553 565.494751 1225.192383 573.965515 1221.039307 C 582.436218 1216.886353 591.047058 1216.635986 599.798157 1220.288208 C 610.263184 1220.578491 619.108032 1220.709229 626.332947 1220.680298 C 633.557922 1220.651489 640.721802 1219.925171 647.82489 1218.501587 C 654.927979 1217.078003 662.532959 1214.506348 670.640015 1210.786621 C 678.74707 1207.067017 689.096985 1201.444946 701.689941 1193.92041 C 709.311523 1189.239258 717.148682 1182.431396 725.20166 1173.496582 C 733.254639 1164.561768 739.397339 1155.593262 743.629883 1146.590698 C 747.862488 1137.588135 749.102539 1129.951294 747.350037 1123.679932 C 745.597595 1117.408691 738.926025 1114.578613 727.335205 1115.189697 C 719.729187 1115.452637 708.554382 1116.228149 693.810486 1117.516235 C 679.066528 1118.804321 661.887512 1117.494507 642.272949 1113.58667 Z"/>
    <linearGradient id="linearGradient5" x1="106.5" y1="720.730007" x2="1332" y2="720.730007" gradientUnits="userSpaceOnUse">
        <stop offset="0" stop-color="#22c55e" stop-opacity="1"/>
        <stop offset="1" stop-color="#14b8a6" stop-opacity="1"/>
    </linearGradient>
    <filter id="filter2" x="0" y="0" width="1440" height="1440" filterUnits="userSpaceOnUse" primitiveUnits="userSpaceOnUse" color-interpolation-filters="sRGB">
        <feGaussianBlur stdDeviation="58.428643"/>
    </filter>
    <path id="CharmHome-copy" fill="none" stroke="url(#linearGradient5)" stroke-width="100" stroke-linecap="round" stroke-linejoin="round" filter="url(#filter2)" d="M 302.579987 549.159973 L 302.579987 1284.459961 M 302.579987 1284.459961 L 582 1284 L 742 1247 M 106.5 696.219971 L 719.25 157 L 1332 696.219971"/>
    <linearGradient id="linearGradient6" x1="986" y1="928" x2="1166" y2="928" gradientUnits="userSpaceOnUse">
        <stop offset="0" stop-color="#22c55e" stop-opacity="1"/>
        <stop offset="1" stop-color="#14b8a6" stop-opacity="1"/>
    </linearGradient>
    <filter id="filter3" x="0" y="0" width="1440" height="1440" filterUnits="userSpaceOnUse" primitiveUnits="userSpaceOnUse" color-interpolation-filters="sRGB">
        <feGaussianBlur stdDeviation="58.428643"/>
    </filter>
    <path id="Path-copy" fill="none" stroke="url(#linearGradient6)" stroke-width="100" stroke-linecap="round" stroke-linejoin="round" filter="url(#filter3)" d="M 1166 572 L 1166 1284 L 986 1284"/>
</svg>
